<svg width="210" height="87" viewBox="0 0 210 87" fill="none" xmlns="http://www.w3.org/2000/svg">
<mask id="path-1-outside-1_79_39" maskUnits="userSpaceOnUse" x="-1" y="21" width="151" height="40" fill="black">
<rect fill="white" x="-1" y="21" width="151" height="40"/>
<path d="M12.8672 24.3047L10.7578 39.2344L22.8047 25.7109L29.9062 26.7188L20.6953 36.9375L27.3516 58.6875L19.1484 57.5391L14.7891 42.9375L9.39844 48.75L8.39062 56.0391L1.10156 54.9844L5.57812 23.2969L12.8672 24.3047ZM39.8906 24.3047L42.0938 56.2266L34.6406 56.7656L32.3906 24.8438L39.8906 24.3047ZM75.7969 27.375L70.2422 58.9219L63.9609 57.7734L55.4062 34.3359C55.25 34.8828 55.2031 35.2344 55.2656 35.3906C55.2344 35.6562 55.2031 35.9141 55.1719 36.1641C55.1406 36.3984 55.0938 36.6094 55.0312 36.7969L51.7031 55.6641L46.0078 54.6094L51.5625 23.1094L59.4844 24.5156L66.9375 45C67 44.5469 67.0469 44.1484 67.0781 43.8047C67.1094 43.4453 67.1562 43.1406 67.2188 42.8906L70.1016 26.3672L75.7969 27.375ZM106.828 27.375L101.273 58.9219L94.9922 57.7734L86.4375 34.3359C86.2812 34.8828 86.2344 35.2344 86.2969 35.3906C86.2656 35.6562 86.2344 35.9141 86.2031 36.1641C86.1719 36.3984 86.125 36.6094 86.0625 36.7969L82.7344 55.6641L77.0391 54.6094L82.5938 23.1094L90.5156 24.5156L97.9688 45C98.0312 44.5469 98.0781 44.1484 98.1094 43.8047C98.1406 43.4453 98.1875 43.1406 98.25 42.8906L101.133 26.3672L106.828 27.375ZM117.094 24.3047L119.297 56.2266L111.844 56.7656L109.594 24.8438L117.094 24.3047ZM147.164 29.6953L131.883 30.2578L132.094 36.7969L144.141 36.3984L144.328 42.4453L132.328 42.8438L132.562 49.8516L147.773 49.2656L148.055 55.6172L125.18 56.3672L124.008 24.3984L146.906 23.6484L147.164 29.6953Z"/>
</mask>
<path d="M12.8672 24.3047L10.7578 39.2344L22.8047 25.7109L29.9062 26.7188L20.6953 36.9375L27.3516 58.6875L19.1484 57.5391L14.7891 42.9375L9.39844 48.75L8.39062 56.0391L1.10156 54.9844L5.57812 23.2969L12.8672 24.3047ZM39.8906 24.3047L42.0938 56.2266L34.6406 56.7656L32.3906 24.8438L39.8906 24.3047ZM75.7969 27.375L70.2422 58.9219L63.9609 57.7734L55.4062 34.3359C55.25 34.8828 55.2031 35.2344 55.2656 35.3906C55.2344 35.6562 55.2031 35.9141 55.1719 36.1641C55.1406 36.3984 55.0938 36.6094 55.0312 36.7969L51.7031 55.6641L46.0078 54.6094L51.5625 23.1094L59.4844 24.5156L66.9375 45C67 44.5469 67.0469 44.1484 67.0781 43.8047C67.1094 43.4453 67.1562 43.1406 67.2188 42.8906L70.1016 26.3672L75.7969 27.375ZM106.828 27.375L101.273 58.9219L94.9922 57.7734L86.4375 34.3359C86.2812 34.8828 86.2344 35.2344 86.2969 35.3906C86.2656 35.6562 86.2344 35.9141 86.2031 36.1641C86.1719 36.3984 86.125 36.6094 86.0625 36.7969L82.7344 55.6641L77.0391 54.6094L82.5938 23.1094L90.5156 24.5156L97.9688 45C98.0312 44.5469 98.0781 44.1484 98.1094 43.8047C98.1406 43.4453 98.1875 43.1406 98.25 42.8906L101.133 26.3672L106.828 27.375ZM117.094 24.3047L119.297 56.2266L111.844 56.7656L109.594 24.8438L117.094 24.3047ZM147.164 29.6953L131.883 30.2578L132.094 36.7969L144.141 36.3984L144.328 42.4453L132.328 42.8438L132.562 49.8516L147.773 49.2656L148.055 55.6172L125.18 56.3672L124.008 24.3984L146.906 23.6484L147.164 29.6953Z" fill="url(#paint0_linear_79_39)"/>
<path d="M12.8672 24.3047L13.8574 24.4446L13.9977 23.4515L13.0041 23.3141L12.8672 24.3047ZM10.7578 39.2344L9.76765 39.0945L9.30506 42.3686L11.5045 39.8995L10.7578 39.2344ZM22.8047 25.7109L22.9452 24.7209L22.4145 24.6455L22.058 25.0458L22.8047 25.7109ZM29.9062 26.7188L30.649 27.3883L31.907 25.9927L30.0468 25.7287L29.9062 26.7188ZM20.6953 36.9375L19.9525 36.268L19.5734 36.6886L19.7391 37.2301L20.6953 36.9375ZM27.3516 58.6875L27.2129 59.6778L28.767 59.8954L28.3078 58.3949L27.3516 58.6875ZM19.1484 57.5391L18.1902 57.8251L18.3739 58.4404L19.0098 58.5294L19.1484 57.5391ZM14.7891 42.9375L15.7473 42.6514L15.2464 40.9738L14.0558 42.2575L14.7891 42.9375ZM9.39844 48.75L8.66522 48.07L8.45101 48.301L8.40786 48.613L9.39844 48.75ZM8.39062 56.0391L8.24742 57.0288L9.24337 57.1729L9.3812 56.176L8.39062 56.0391ZM1.10156 54.9844L0.111394 54.8445L-0.0280204 55.8313L0.958359 55.9741L1.10156 54.9844ZM5.57812 23.2969L5.71509 22.3063L4.72743 22.1697L4.58796 23.157L5.57812 23.2969ZM11.877 24.1648L9.76765 39.0945L11.748 39.3743L13.8574 24.4446L11.877 24.1648ZM11.5045 39.8995L23.5514 26.3761L22.058 25.0458L10.0111 38.5692L11.5045 39.8995ZM22.6642 26.701L29.7657 27.7088L30.0468 25.7287L22.9452 24.7209L22.6642 26.701ZM29.1635 26.0492L19.9525 36.268L21.4381 37.607L30.649 27.3883L29.1635 26.0492ZM19.7391 37.2301L26.3953 58.9801L28.3078 58.3949L21.6515 36.6449L19.7391 37.2301ZM27.4902 57.6972L19.2871 56.5487L19.0098 58.5294L27.2129 59.6778L27.4902 57.6972ZM20.1066 57.253L15.7473 42.6514L13.8309 43.2236L18.1902 57.8251L20.1066 57.253ZM14.0558 42.2575L8.66522 48.07L10.1317 49.43L15.5223 43.6175L14.0558 42.2575ZM8.40786 48.613L7.40005 55.9021L9.3812 56.176L10.389 48.887L8.40786 48.613ZM8.53383 55.0494L1.24477 53.9947L0.958359 55.9741L8.24742 57.0288L8.53383 55.0494ZM2.09173 55.1243L6.56829 23.4368L4.58796 23.157L0.111394 54.8445L2.09173 55.1243ZM5.44116 24.2875L12.7302 25.2953L13.0041 23.3141L5.71509 22.3063L5.44116 24.2875ZM39.8906 24.3047L40.8883 24.2358L40.8192 23.2354L39.8189 23.3073L39.8906 24.3047ZM42.0938 56.2266L42.1659 57.224L43.16 57.1521L43.0914 56.1577L42.0938 56.2266ZM34.6406 56.7656L33.6431 56.8359L33.7135 57.8353L34.7128 57.763L34.6406 56.7656ZM32.3906 24.8438L32.3189 23.8463L31.3229 23.9179L31.3931 24.9141L32.3906 24.8438ZM38.893 24.3735L41.0961 56.2954L43.0914 56.1577L40.8883 24.2358L38.893 24.3735ZM42.0216 55.2292L34.5685 55.7682L34.7128 57.763L42.1659 57.224L42.0216 55.2292ZM35.6382 56.6953L33.3882 24.7734L31.3931 24.9141L33.6431 56.8359L35.6382 56.6953ZM32.4623 25.8412L39.9623 25.3021L39.8189 23.3073L32.3189 23.8463L32.4623 25.8412ZM75.7969 27.375L76.7817 27.5484L76.955 26.5644L75.9711 26.3903L75.7969 27.375ZM70.2422 58.9219L70.0623 59.9056L71.0525 60.0866L71.227 59.0953L70.2422 58.9219ZM63.9609 57.7734L63.0216 58.1163L63.2179 58.6542L63.7811 58.7571L63.9609 57.7734ZM55.4062 34.3359L56.3456 33.9931L55.2903 31.1017L54.4447 34.0612L55.4062 34.3359ZM55.2656 35.3906L56.2588 35.5075L56.2885 35.2551L56.1941 35.0192L55.2656 35.3906ZM55.1719 36.1641L56.1631 36.2962L56.1642 36.2881L55.1719 36.1641ZM55.0312 36.7969L54.0826 36.4806L54.0593 36.5506L54.0465 36.6232L55.0312 36.7969ZM51.7031 55.6641L51.521 56.6473L52.5127 56.831L52.6879 55.8378L51.7031 55.6641ZM46.0078 54.6094L45.023 54.4357L44.8508 55.4121L45.8257 55.5927L46.0078 54.6094ZM51.5625 23.1094L51.7373 22.1248L50.7516 21.9498L50.5777 22.9357L51.5625 23.1094ZM59.4844 24.5156L60.4241 24.1737L60.2269 23.6318L59.6592 23.531L59.4844 24.5156ZM66.9375 45L65.9978 45.3419L67.9281 45.1366L66.9375 45ZM67.0781 43.8047L68.074 43.8952L68.0744 43.8913L67.0781 43.8047ZM67.2188 42.8906L68.1889 43.1332L68.1977 43.0981L68.2039 43.0625L67.2188 42.8906ZM70.1016 26.3672L70.2758 25.3825L69.2887 25.2078L69.1164 26.1953L70.1016 26.3672ZM74.812 27.2016L69.2573 58.7485L71.227 59.0953L76.7817 27.5484L74.812 27.2016ZM70.422 57.9382L64.1408 56.7897L63.7811 58.7571L70.0623 59.9056L70.422 57.9382ZM64.9003 57.4306L56.3456 33.9931L54.4669 34.6788L63.0216 58.1163L64.9003 57.4306ZM54.4447 34.0612C54.3602 34.3571 54.2952 34.6338 54.2627 34.8776C54.2365 35.074 54.2029 35.4263 54.3371 35.762L56.1941 35.0192C56.2177 35.0782 56.2281 35.1258 56.2329 35.1539C56.2379 35.1826 56.2386 35.2012 56.2388 35.2061C56.239 35.2136 56.238 35.1953 56.2451 35.1419C56.2595 35.0342 56.2961 34.8616 56.3678 34.6107L54.4447 34.0612ZM54.2725 35.2738C54.2415 35.5372 54.2105 35.7926 54.1796 36.04L56.1642 36.2881C56.1957 36.0356 56.2273 35.7753 56.2588 35.5075L54.2725 35.2738ZM54.1806 36.0319C54.1562 36.2155 54.1217 36.3633 54.0826 36.4806L55.9799 37.1131C56.0658 36.8554 56.1251 36.5814 56.1631 36.2962L54.1806 36.0319ZM54.0465 36.6232L50.7183 55.4903L52.6879 55.8378L56.016 36.9706L54.0465 36.6232ZM51.8852 54.6808L46.1899 53.6261L45.8257 55.5927L51.521 56.6473L51.8852 54.6808ZM46.9926 54.783L52.5473 23.283L50.5777 22.9357L45.023 54.4357L46.9926 54.783ZM51.3877 24.094L59.3096 25.5002L59.6592 23.531L51.7373 22.1248L51.3877 24.094ZM58.5446 24.8575L65.9978 45.3419L67.8772 44.6581L60.4241 24.1737L58.5446 24.8575ZM67.9281 45.1366C67.9921 44.6728 68.041 44.2584 68.074 43.8952L66.0822 43.7142C66.0527 44.0385 66.0079 44.421 65.9469 44.8634L67.9281 45.1366ZM68.0744 43.8913C68.1027 43.5655 68.1431 43.3163 68.1889 43.1332L66.2486 42.6481C66.1694 42.965 66.116 43.3252 66.0819 43.7181L68.0744 43.8913ZM68.2039 43.0625L71.0867 26.5391L69.1164 26.1953L66.2336 42.7188L68.2039 43.0625ZM69.9273 27.3519L75.6226 28.3597L75.9711 26.3903L70.2758 25.3825L69.9273 27.3519ZM106.828 27.375L107.813 27.5484L107.986 26.5644L107.002 26.3903L106.828 27.375ZM101.273 58.9219L101.094 59.9056L102.084 60.0866L102.258 59.0953L101.273 58.9219ZM94.9922 57.7734L94.0528 58.1163L94.2491 58.6542L94.8123 58.7571L94.9922 57.7734ZM86.4375 34.3359L87.3769 33.9931L86.3215 31.1017L85.476 34.0612L86.4375 34.3359ZM86.2969 35.3906L87.29 35.5075L87.3197 35.2551L87.2254 35.0192L86.2969 35.3906ZM86.2031 36.1641L87.1944 36.2962L87.1954 36.2881L86.2031 36.1641ZM86.0625 36.7969L85.1138 36.4806L85.0905 36.5506L85.0777 36.6232L86.0625 36.7969ZM82.7344 55.6641L82.5523 56.6473L83.544 56.831L83.7192 55.8378L82.7344 55.6641ZM77.0391 54.6094L76.0543 54.4357L75.8821 55.4121L76.857 55.5927L77.0391 54.6094ZM82.5938 23.1094L82.7685 22.1248L81.7828 21.9498L81.6089 22.9357L82.5938 23.1094ZM90.5156 24.5156L91.4554 24.1737L91.2582 23.6318L90.6904 23.531L90.5156 24.5156ZM97.9688 45L97.029 45.3419L98.9594 45.1366L97.9688 45ZM98.1094 43.8047L99.1053 43.8952L99.1056 43.8913L98.1094 43.8047ZM98.25 42.8906L99.2201 43.1332L99.2289 43.0981L99.2351 43.0625L98.25 42.8906ZM101.133 26.3672L101.307 25.3825L100.32 25.2078L100.148 26.1953L101.133 26.3672ZM105.843 27.2016L100.289 58.7485L102.258 59.0953L107.813 27.5484L105.843 27.2016ZM101.453 57.9382L95.172 56.7897L94.8123 58.7571L101.094 59.9056L101.453 57.9382ZM95.9316 57.4306L87.3769 33.9931L85.4981 34.6788L94.0528 58.1163L95.9316 57.4306ZM85.476 34.0612C85.3914 34.3571 85.3264 34.6338 85.2939 34.8776C85.2677 35.074 85.2341 35.4263 85.3684 35.762L87.2254 35.0192C87.2489 35.0782 87.2594 35.1258 87.2642 35.1539C87.2691 35.1826 87.2699 35.2012 87.27 35.2061C87.2703 35.2136 87.2693 35.1953 87.2764 35.1419C87.2908 35.0342 87.3273 34.8616 87.399 34.6107L85.476 34.0612ZM85.3037 35.2738C85.2727 35.5372 85.2418 35.7926 85.2108 36.04L87.1954 36.2881C87.227 36.0356 87.2585 35.7753 87.29 35.5075L85.3037 35.2738ZM85.2119 36.0319C85.1874 36.2155 85.1529 36.3633 85.1138 36.4806L87.0112 37.1131C87.0971 36.8554 87.1563 36.5814 87.1944 36.2962L85.2119 36.0319ZM85.0777 36.6232L81.7496 55.4903L83.7192 55.8378L87.0473 36.9706L85.0777 36.6232ZM82.9165 54.6808L77.2212 53.6261L76.857 55.5927L82.5523 56.6473L82.9165 54.6808ZM78.0239 54.783L83.5786 23.283L81.6089 22.9357L76.0543 54.4357L78.0239 54.783ZM82.419 24.094L90.3408 25.5002L90.6904 23.531L82.7685 22.1248L82.419 24.094ZM89.5759 24.8575L97.029 45.3419L98.9085 44.6581L91.4554 24.1737L89.5759 24.8575ZM98.9594 45.1366C99.0234 44.6728 99.0723 44.2584 99.1053 43.8952L97.1135 43.7142C97.084 44.0385 97.0391 44.421 96.9781 44.8634L98.9594 45.1366ZM99.1056 43.8913C99.134 43.5655 99.1744 43.3163 99.2201 43.1332L97.2799 42.6481C97.2006 42.965 97.1473 43.3252 97.1131 43.7181L99.1056 43.8913ZM99.2351 43.0625L102.118 26.5391L100.148 26.1953L97.2649 42.7188L99.2351 43.0625ZM100.959 27.3519L106.654 28.3597L107.002 26.3903L101.307 25.3825L100.959 27.3519ZM117.094 24.3047L118.091 24.2358L118.022 23.2354L117.022 23.3073L117.094 24.3047ZM119.297 56.2266L119.369 57.224L120.363 57.1521L120.295 56.1577L119.297 56.2266ZM111.844 56.7656L110.846 56.8359L110.917 57.8353L111.916 57.763L111.844 56.7656ZM109.594 24.8438L109.522 23.8463L108.526 23.9179L108.596 24.9141L109.594 24.8438ZM116.096 24.3735L118.299 56.2954L120.295 56.1577L118.091 24.2358L116.096 24.3735ZM119.225 55.2292L111.772 55.7682L111.916 57.763L119.369 57.224L119.225 55.2292ZM112.841 56.6953L110.591 24.7734L108.596 24.9141L110.846 56.8359L112.841 56.6953ZM109.665 25.8412L117.165 25.3021L117.022 23.3073L109.522 23.8463L109.665 25.8412ZM147.164 29.6953L147.201 30.6946L148.206 30.6576L148.163 29.6527L147.164 29.6953ZM131.883 30.2578L131.846 29.2585L130.851 29.2951L130.883 30.2901L131.883 30.2578ZM132.094 36.7969L131.094 36.8291L131.127 37.8294L132.127 37.7963L132.094 36.7969ZM144.141 36.3984L145.14 36.3674L145.109 35.3659L144.108 35.399L144.141 36.3984ZM144.328 42.4453L144.361 43.4448L145.359 43.4116L145.328 42.4143L144.328 42.4453ZM132.328 42.8438L132.295 41.8443L131.295 41.8775L131.329 42.8772L132.328 42.8438ZM132.562 49.8516L131.563 49.885L131.597 50.8895L132.601 50.8508L132.562 49.8516ZM147.773 49.2656L148.772 49.2214L148.728 48.2281L147.735 48.2664L147.773 49.2656ZM148.055 55.6172L148.087 56.6167L149.098 56.5835L149.054 55.573L148.055 55.6172ZM125.18 56.3672L124.18 56.4038L124.217 57.3993L125.212 57.3667L125.18 56.3672ZM124.008 24.3984L123.975 23.399L122.972 23.4318L123.008 24.4351L124.008 24.3984ZM146.906 23.6484L147.905 23.6058L147.863 22.6166L146.874 22.649L146.906 23.6484ZM147.127 28.696L131.846 29.2585L131.92 31.2571L147.201 30.6946L147.127 28.696ZM130.883 30.2901L131.094 36.8291L133.093 36.7646L132.882 30.2256L130.883 30.2901ZM132.127 37.7963L144.174 37.3979L144.108 35.399L132.061 35.7974L132.127 37.7963ZM143.141 36.4294L143.329 42.4763L145.328 42.4143L145.14 36.3674L143.141 36.4294ZM144.295 41.4459L132.295 41.8443L132.361 43.8432L144.361 43.4448L144.295 41.4459ZM131.329 42.8772L131.563 49.885L133.562 49.8181L133.328 42.8103L131.329 42.8772ZM132.601 50.8508L147.812 50.2649L147.735 48.2664L132.524 48.8523L132.601 50.8508ZM146.774 49.3099L147.056 55.6614L149.054 55.573L148.772 49.2214L146.774 49.3099ZM148.022 54.6177L125.147 55.3677L125.212 57.3667L148.087 56.6167L148.022 54.6177ZM126.179 56.3306L125.007 24.3618L123.008 24.4351L124.18 56.4038L126.179 56.3306ZM124.041 25.3979L146.939 24.6479L146.874 22.649L123.975 23.399L124.041 25.3979ZM145.907 23.691L146.165 29.7379L148.163 29.6527L147.905 23.6058L145.907 23.691Z" fill="white" mask="url(#path-1-outside-1_79_39)"/>
<mask id="path-3-outside-2_79_39" maskUnits="userSpaceOnUse" x="36" y="46" width="174" height="33" fill="black">
<rect fill="white" x="36" y="46" width="174" height="33"/>
<path d="M45.4375 65.3555L43.7188 75.1211L37.4492 74.0469L42.0781 47.7188L52.4492 49.5547C54.7669 49.9583 56.4727 50.5182 57.5664 51.2344C58.1523 51.612 58.6732 52.0677 59.1289 52.6016C59.5977 53.1354 60.0078 53.7604 60.3594 54.4766C61.1536 55.8698 61.3685 57.5104 61.0039 59.3984C60.7826 60.7005 60.3138 61.9245 59.5977 63.0703C58.8815 64.2031 57.9896 65.0495 56.9219 65.6094C55.8802 66.1693 54.8776 66.4753 53.9141 66.5273C52.9635 66.5794 51.5768 66.4427 49.7539 66.1172L45.4375 65.3555ZM46.082 60.5508L50.0469 61.2734C50.7891 61.4167 51.4466 61.4427 52.0195 61.3516C52.5924 61.2474 53.0612 61.0651 53.4258 60.8047C53.8034 60.5312 54.1029 60.1992 54.3242 59.8086C54.5586 59.4049 54.7148 58.9753 54.793 58.5195C55.0143 57.3997 54.8451 56.4883 54.2852 55.7852C53.7253 55.069 52.7227 54.5938 51.2773 54.3594L47.3125 53.6367L46.082 60.5508ZM70.4766 70.3555L80.9453 71.8398L80.2422 77.0352L63.4648 74.6719L67.1953 48.2852L73.4258 49.1641L70.4766 70.3555ZM95.3203 47.7969L106.395 73.4805L99.7148 74.2031L97.5469 68.8711L88.9531 69.8086L87.8398 75.4336L82.3906 76L88.0742 48.5586L95.3203 47.7969ZM89.9102 64.7695L95.5547 64.1641L91.7461 55.1602L89.9102 64.7695ZM130.359 47.9531L122 63.4414V74.7109L115.77 74.6719V63.4414L107.41 47.9922H114.598L119.734 58.168L124.773 47.9922L130.359 47.9531ZM139.461 70.3555L149.93 71.8398L149.227 77.0352L132.449 74.6719L136.18 48.2852L142.41 49.1641L139.461 70.3555ZM159.422 48.7539L161.258 75.3555L155.047 75.8047L153.172 49.2031L159.422 48.7539ZM185.984 56.6836L180.555 57.7188C180.099 55.5052 178.738 54.2422 176.473 53.9297C174.025 53.6042 172.677 54.2292 172.43 55.8047C172.352 56.4167 172.501 56.9896 172.879 57.5234C173.322 57.9792 174.318 58.513 175.867 59.125C177.234 59.5807 178.38 60.0169 179.305 60.4336C180.242 60.8372 180.978 61.2148 181.512 61.5664C182.71 62.3346 183.628 63.3698 184.266 64.6719C184.995 66.0391 185.236 67.4844 184.988 69.0078C184.676 71.4036 183.465 73.3372 181.355 74.8086C179.324 76.1107 176.499 76.5078 172.879 76C170.132 75.7656 167.938 74.9258 166.297 73.4805C164.656 72.0352 163.699 70.0234 163.426 67.4453L169.148 66.918C169.422 69.5091 171.023 71 173.953 71.3906C175.398 71.612 176.505 71.4948 177.273 71.0391C178.042 70.5833 178.484 69.9714 178.602 69.2031C178.654 68.7995 178.628 68.4479 178.523 68.1484C178.432 67.8359 178.224 67.543 177.898 67.2695C177.586 66.9831 177.15 66.7096 176.59 66.4492C176.03 66.1758 175.314 65.8763 174.441 65.5508C171.16 64.4049 168.888 63.1289 167.625 61.7227C166.349 60.2773 165.887 58.3958 166.238 56.0781C166.551 53.7344 167.671 51.8789 169.598 50.5117C171.512 49.1315 173.953 48.6562 176.922 49.0859C182.091 49.8021 185.112 52.3346 185.984 56.6836ZM207.918 48.3242L208.074 53.5586L201.512 53.793L202.234 75.1602L195.945 75.3945L195.203 54.0469L188.562 54.2422L188.348 49.0078L207.918 48.3242Z"/>
</mask>
<path d="M45.4375 65.3555L43.7188 75.1211L37.4492 74.0469L42.0781 47.7188L52.4492 49.5547C54.7669 49.9583 56.4727 50.5182 57.5664 51.2344C58.1523 51.612 58.6732 52.0677 59.1289 52.6016C59.5977 53.1354 60.0078 53.7604 60.3594 54.4766C61.1536 55.8698 61.3685 57.5104 61.0039 59.3984C60.7826 60.7005 60.3138 61.9245 59.5977 63.0703C58.8815 64.2031 57.9896 65.0495 56.9219 65.6094C55.8802 66.1693 54.8776 66.4753 53.9141 66.5273C52.9635 66.5794 51.5768 66.4427 49.7539 66.1172L45.4375 65.3555ZM46.082 60.5508L50.0469 61.2734C50.7891 61.4167 51.4466 61.4427 52.0195 61.3516C52.5924 61.2474 53.0612 61.0651 53.4258 60.8047C53.8034 60.5312 54.1029 60.1992 54.3242 59.8086C54.5586 59.4049 54.7148 58.9753 54.793 58.5195C55.0143 57.3997 54.8451 56.4883 54.2852 55.7852C53.7253 55.069 52.7227 54.5938 51.2773 54.3594L47.3125 53.6367L46.082 60.5508ZM70.4766 70.3555L80.9453 71.8398L80.2422 77.0352L63.4648 74.6719L67.1953 48.2852L73.4258 49.1641L70.4766 70.3555ZM95.3203 47.7969L106.395 73.4805L99.7148 74.2031L97.5469 68.8711L88.9531 69.8086L87.8398 75.4336L82.3906 76L88.0742 48.5586L95.3203 47.7969ZM89.9102 64.7695L95.5547 64.1641L91.7461 55.1602L89.9102 64.7695ZM130.359 47.9531L122 63.4414V74.7109L115.77 74.6719V63.4414L107.41 47.9922H114.598L119.734 58.168L124.773 47.9922L130.359 47.9531ZM139.461 70.3555L149.93 71.8398L149.227 77.0352L132.449 74.6719L136.18 48.2852L142.41 49.1641L139.461 70.3555ZM159.422 48.7539L161.258 75.3555L155.047 75.8047L153.172 49.2031L159.422 48.7539ZM185.984 56.6836L180.555 57.7188C180.099 55.5052 178.738 54.2422 176.473 53.9297C174.025 53.6042 172.677 54.2292 172.43 55.8047C172.352 56.4167 172.501 56.9896 172.879 57.5234C173.322 57.9792 174.318 58.513 175.867 59.125C177.234 59.5807 178.38 60.0169 179.305 60.4336C180.242 60.8372 180.978 61.2148 181.512 61.5664C182.71 62.3346 183.628 63.3698 184.266 64.6719C184.995 66.0391 185.236 67.4844 184.988 69.0078C184.676 71.4036 183.465 73.3372 181.355 74.8086C179.324 76.1107 176.499 76.5078 172.879 76C170.132 75.7656 167.938 74.9258 166.297 73.4805C164.656 72.0352 163.699 70.0234 163.426 67.4453L169.148 66.918C169.422 69.5091 171.023 71 173.953 71.3906C175.398 71.612 176.505 71.4948 177.273 71.0391C178.042 70.5833 178.484 69.9714 178.602 69.2031C178.654 68.7995 178.628 68.4479 178.523 68.1484C178.432 67.8359 178.224 67.543 177.898 67.2695C177.586 66.9831 177.15 66.7096 176.59 66.4492C176.03 66.1758 175.314 65.8763 174.441 65.5508C171.16 64.4049 168.888 63.1289 167.625 61.7227C166.349 60.2773 165.887 58.3958 166.238 56.0781C166.551 53.7344 167.671 51.8789 169.598 50.5117C171.512 49.1315 173.953 48.6562 176.922 49.0859C182.091 49.8021 185.112 52.3346 185.984 56.6836ZM207.918 48.3242L208.074 53.5586L201.512 53.793L202.234 75.1602L195.945 75.3945L195.203 54.0469L188.562 54.2422L188.348 49.0078L207.918 48.3242Z" fill="url(#paint1_linear_79_39)"/>
<path d="M45.4375 65.3555L45.6113 64.3707L44.6261 64.1968L44.4526 65.1821L45.4375 65.3555ZM43.7188 75.1211L43.5499 76.1067L44.5311 76.2748L44.7036 75.2944L43.7188 75.1211ZM37.4492 74.0469L36.4643 73.8737L36.2904 74.8629L37.2803 75.0325L37.4492 74.0469ZM42.0781 47.7188L42.2524 46.7341L41.2666 46.5595L41.0932 47.5456L42.0781 47.7188ZM52.4492 49.5547L52.2749 50.5394L52.2776 50.5399L52.4492 49.5547ZM57.5664 51.2344L57.0186 52.071L57.0247 52.0749L57.5664 51.2344ZM59.1289 52.6016L58.3683 53.2509L58.3775 53.2614L59.1289 52.6016ZM60.3594 54.4766L59.4617 54.9172L59.4753 54.945L59.4906 54.9718L60.3594 54.4766ZM61.0039 59.3984L60.022 59.2088L60.0199 59.2198L60.0181 59.2308L61.0039 59.3984ZM59.5977 63.0703L60.4429 63.6047L60.4457 63.6003L59.5977 63.0703ZM56.9219 65.6094L56.4574 64.7237L56.4484 64.7286L56.9219 65.6094ZM53.9141 66.5273L53.8601 65.5288L53.8594 65.5288L53.9141 66.5273ZM49.7539 66.1172L49.9297 65.1328L49.9277 65.1324L49.7539 66.1172ZM46.082 60.5508L45.0975 60.3756L44.923 61.356L45.9027 61.5346L46.082 60.5508ZM50.0469 61.2734L50.2364 60.2915L50.2262 60.2896L50.0469 61.2734ZM52.0195 61.3516L52.1766 62.3391L52.1876 62.3374L52.1984 62.3354L52.0195 61.3516ZM53.4258 60.8047L54.007 61.6184L54.0123 61.6146L53.4258 60.8047ZM54.3242 59.8086L53.4594 59.3064L53.4542 59.3156L54.3242 59.8086ZM54.793 58.5195L53.812 58.3256L53.8095 58.3381L53.8073 58.3506L54.793 58.5195ZM54.2852 55.7852L53.4973 56.4011L53.5029 56.4081L54.2852 55.7852ZM51.2773 54.3594L51.098 55.3432L51.1076 55.3449L51.1173 55.3465L51.2773 54.3594ZM47.3125 53.6367L47.4918 52.6529L46.5039 52.4729L46.328 53.4615L47.3125 53.6367ZM44.4526 65.1821L42.7339 74.9478L44.7036 75.2944L46.4224 65.5288L44.4526 65.1821ZM43.8876 74.1355L37.6181 73.0612L37.2803 75.0325L43.5499 76.1067L43.8876 74.1355ZM38.4341 74.22L43.063 47.8919L41.0932 47.5456L36.4643 73.8737L38.4341 74.22ZM41.9038 48.7034L52.2749 50.5394L52.6235 48.57L42.2524 46.7341L41.9038 48.7034ZM52.2776 50.5399C54.5514 50.9358 56.0963 51.4671 57.0186 52.071L58.1142 50.3978C56.849 49.5693 54.9825 48.9808 52.6208 48.5695L52.2776 50.5399ZM57.0247 52.0749C57.5282 52.3994 57.9754 52.7905 58.3683 53.2508L59.8895 51.9523C59.3709 51.3449 58.7765 50.8245 58.1081 50.3938L57.0247 52.0749ZM58.3775 53.2614C58.7814 53.7214 59.1443 54.2707 59.4617 54.9172L61.257 54.0359C60.8713 53.2501 60.4139 52.5494 59.8803 51.9418L58.3775 53.2614ZM59.4906 54.9718C60.1441 56.1181 60.3508 57.5064 60.022 59.2088L61.9858 59.588C62.3862 57.5144 62.1632 55.6215 61.2281 53.9813L59.4906 54.9718ZM60.0181 59.2308C59.8191 60.4013 59.3983 61.5025 58.7497 62.5403L60.4457 63.6003C61.2293 62.3464 61.746 60.9998 61.9898 59.566L60.0181 59.2308ZM58.7524 62.536C58.1194 63.5372 57.3527 64.2543 56.4575 64.7238L57.3863 66.495C58.6265 65.8447 59.6436 64.869 60.4429 63.6047L58.7524 62.536ZM56.4484 64.7286C55.5076 65.2342 54.6476 65.4862 53.8601 65.5288L53.968 67.5259C55.1076 67.4643 56.2528 67.1043 57.3953 66.4902L56.4484 64.7286ZM53.8594 65.5288C53.0279 65.5744 51.7337 65.4549 49.9297 65.1328L49.5781 67.1016C51.4199 67.4305 52.8992 67.5845 53.9688 67.5258L53.8594 65.5288ZM49.9277 65.1324L45.6113 64.3707L45.2637 66.3403L49.5801 67.102L49.9277 65.1324ZM45.9027 61.5346L49.8676 62.2572L50.2262 60.2896L46.2613 59.567L45.9027 61.5346ZM49.8574 62.2553C50.6811 62.4143 51.4598 62.4532 52.1766 62.3391L51.8624 60.364C51.4334 60.4322 50.897 60.419 50.2364 60.2916L49.8574 62.2553ZM52.1984 62.3354C52.8746 62.2125 53.4922 61.9862 54.007 61.6184L52.8445 59.991C52.6302 60.1441 52.3103 60.2823 51.8406 60.3677L52.1984 62.3354ZM54.0123 61.6146C54.5015 61.2604 54.8995 60.8218 55.1942 60.3016L53.4542 59.3156C53.3063 59.5766 53.1053 59.8021 52.8393 59.9947L54.0123 61.6146ZM55.189 60.3107C55.4826 59.8051 55.6802 59.2627 55.7786 58.6885L53.8073 58.3506C53.7495 58.6878 53.6346 59.0048 53.4594 59.3065L55.189 60.3107ZM55.774 58.7135C56.0357 57.3894 55.8577 56.1547 55.0674 55.1622L53.5029 56.4081C53.8324 56.8219 53.9929 57.4101 53.812 58.3256L55.774 58.7135ZM55.073 55.1692C54.2869 54.1639 52.9872 53.6236 51.4374 53.3723L51.1173 55.3465C52.4581 55.5639 53.1636 55.9742 53.4973 56.4011L55.073 55.1692ZM51.4567 53.3756L47.4918 52.6529L47.1332 54.6205L51.098 55.3432L51.4567 53.3756ZM46.328 53.4615L45.0975 60.3756L47.0666 60.726L48.297 53.8119L46.328 53.4615ZM70.4766 70.3555L69.4861 70.2176L69.3486 71.2055L70.3362 71.3456L70.4766 70.3555ZM80.9453 71.8398L81.9363 71.974L82.0695 70.9892L81.0857 70.8497L80.9453 71.8398ZM80.2422 77.0352L80.1027 78.0254L81.0983 78.1656L81.2332 77.1693L80.2422 77.0352ZM63.4648 74.6719L62.4747 74.5319L62.3346 75.5225L63.3254 75.6621L63.4648 74.6719ZM67.1953 48.2852L67.335 47.295L66.3451 47.1553L66.2052 48.1452L67.1953 48.2852ZM73.4258 49.1641L74.4162 49.3019L74.5538 48.3133L73.5655 48.1739L73.4258 49.1641ZM70.3362 71.3456L80.8049 72.8299L81.0857 70.8497L70.6169 69.3654L70.3362 71.3456ZM79.9543 71.7057L79.2512 76.901L81.2332 77.1693L81.9363 71.974L79.9543 71.7057ZM80.3817 76.0449L63.6043 73.6817L63.3254 75.6621L80.1027 78.0254L80.3817 76.0449ZM64.455 74.8119L68.1855 48.4251L66.2052 48.1452L62.4747 74.5319L64.455 74.8119ZM67.0556 49.2754L73.2861 50.1543L73.5655 48.1739L67.335 47.295L67.0556 49.2754ZM72.4353 49.0262L69.4861 70.2176L71.467 70.4933L74.4162 49.3019L72.4353 49.0262ZM95.3203 47.7969L96.2386 47.4009L95.9473 46.7255L95.2158 46.8024L95.3203 47.7969ZM106.395 73.4805L106.502 74.4747L107.849 74.3289L107.313 73.0845L106.395 73.4805ZM99.7148 74.2031L98.7885 74.5798L99.0726 75.2784L99.8224 75.1973L99.7148 74.2031ZM97.5469 68.8711L98.4732 68.4944L98.1889 67.7951L97.4384 67.877L97.5469 68.8711ZM88.9531 69.8086L88.8447 68.8145L88.1147 68.8941L87.9722 69.6144L88.9531 69.8086ZM87.8398 75.4336L87.9432 76.4282L88.6775 76.3519L88.8208 75.6277L87.8398 75.4336ZM82.3906 76L81.4114 75.7972L81.1341 77.136L82.494 76.9946L82.3906 76ZM88.0742 48.5586L87.9697 47.5641L87.2432 47.6404L87.095 48.3558L88.0742 48.5586ZM89.9102 64.7695L88.9279 64.5819L88.6746 65.9078L90.0168 65.7638L89.9102 64.7695ZM95.5547 64.1641L95.6613 65.1584L97.0003 65.0147L96.4757 63.7745L95.5547 64.1641ZM91.7461 55.1602L92.6671 54.7706L91.3826 51.7339L90.7639 54.9725L91.7461 55.1602ZM94.402 48.1928L105.476 73.8764L107.313 73.0845L96.2386 47.4009L94.402 48.1928ZM106.287 72.4863L99.6073 73.2089L99.8224 75.1973L106.502 74.4747L106.287 72.4863ZM100.641 73.8265L98.4732 68.4944L96.6205 69.2477L98.7885 74.5798L100.641 73.8265ZM97.4384 67.877L88.8447 68.8145L89.0616 70.8027L97.6553 69.8652L97.4384 67.877ZM87.9722 69.6144L86.8589 75.2394L88.8208 75.6277L89.9341 70.0027L87.9722 69.6144ZM87.7365 74.439L82.2872 75.0054L82.494 76.9946L87.9432 76.4282L87.7365 74.439ZM83.3698 76.2028L89.0534 48.7614L87.095 48.3558L81.4114 75.7972L83.3698 76.2028ZM88.1788 49.5531L95.4249 48.7914L95.2158 46.8024L87.9697 47.5641L88.1788 49.5531ZM90.0168 65.7638L95.6613 65.1584L95.448 63.1698L89.8035 63.7752L90.0168 65.7638ZM96.4757 63.7745L92.6671 54.7706L90.8251 55.5497L94.6337 64.5536L96.4757 63.7745ZM90.7639 54.9725L88.9279 64.5819L90.8924 64.9572L92.7283 55.3478L90.7639 54.9725ZM130.359 47.9531L131.239 48.4281L132.042 46.9413L130.352 46.9531L130.359 47.9531ZM122 63.4414L121.12 62.9664L121 63.1888V63.4414H122ZM122 74.7109L121.994 75.7109L123 75.7172V74.7109H122ZM115.77 74.6719H114.77V75.6656L115.763 75.6719L115.77 74.6719ZM115.77 63.4414H116.77V63.1882L116.649 62.9655L115.77 63.4414ZM107.41 47.9922V46.9922H105.732L106.531 48.4681L107.41 47.9922ZM114.598 47.9922L115.49 47.5416L115.213 46.9922H114.598V47.9922ZM119.734 58.168L118.842 58.6186L119.743 60.4041L120.631 58.6117L119.734 58.168ZM124.773 47.9922L124.766 46.9922L124.151 46.9965L123.877 47.5484L124.773 47.9922ZM129.479 47.4782L121.12 62.9664L122.88 63.9164L131.239 48.4281L129.479 47.4782ZM121 63.4414V74.7109H123V63.4414H121ZM122.006 73.711L115.776 73.6719L115.763 75.6719L121.994 75.7109L122.006 73.711ZM116.77 74.6719V63.4414H114.77V74.6719H116.77ZM116.649 62.9655L108.29 47.5163L106.531 48.4681L114.89 63.9173L116.649 62.9655ZM107.41 48.9922H114.598V46.9922H107.41V48.9922ZM113.705 48.4428L118.842 58.6186L120.627 57.7173L115.49 47.5416L113.705 48.4428ZM120.631 58.6117L125.67 48.436L123.877 47.5484L118.838 57.7242L120.631 58.6117ZM124.78 48.9922L130.366 48.9531L130.352 46.9531L124.766 46.9922L124.78 48.9922ZM139.461 70.3555L138.47 70.2176L138.333 71.2055L139.321 71.3456L139.461 70.3555ZM149.93 71.8398L150.921 71.974L151.054 70.9892L150.07 70.8497L149.93 71.8398ZM149.227 77.0352L149.087 78.0254L150.083 78.1656L150.218 77.1693L149.227 77.0352ZM132.449 74.6719L131.459 74.5319L131.319 75.5225L132.31 75.6621L132.449 74.6719ZM136.18 48.2852L136.319 47.295L135.329 47.1553L135.19 48.1452L136.18 48.2852ZM142.41 49.1641L143.401 49.3019L143.538 48.3133L142.55 48.1739L142.41 49.1641ZM139.321 71.3456L149.789 72.8299L150.07 70.8497L139.601 69.3654L139.321 71.3456ZM148.939 71.7057L148.236 76.901L150.218 77.1693L150.921 71.974L148.939 71.7057ZM149.366 76.0449L132.589 73.6817L132.31 75.6621L149.087 78.0254L149.366 76.0449ZM133.439 74.8119L137.17 48.4251L135.19 48.1452L131.459 74.5319L133.439 74.8119ZM136.04 49.2754L142.27 50.1543L142.55 48.1739L136.319 47.295L136.04 49.2754ZM141.42 49.0262L138.47 70.2176L140.451 70.4933L143.401 49.3019L141.42 49.0262ZM159.422 48.7539L160.42 48.6851L160.35 47.6846L159.35 47.7565L159.422 48.7539ZM161.258 75.3555L161.33 76.3529L162.324 76.281L162.255 75.2866L161.258 75.3555ZM155.047 75.8047L154.049 75.875L154.12 76.8744L155.119 76.8021L155.047 75.8047ZM153.172 49.2031L153.1 48.2057L152.104 48.2773L152.174 49.2734L153.172 49.2031ZM158.424 48.8228L160.26 75.4243L162.255 75.2866L160.42 48.6851L158.424 48.8228ZM161.186 74.3581L154.975 74.8073L155.119 76.8021L161.33 76.3529L161.186 74.3581ZM156.044 75.7344L154.169 49.1328L152.174 49.2734L154.049 75.875L156.044 75.7344ZM153.244 50.2006L159.494 49.7513L159.35 47.7565L153.1 48.2057L153.244 50.2006ZM185.984 56.6836L186.172 57.6659L187.163 57.4768L186.965 56.4869L185.984 56.6836ZM180.555 57.7188L179.575 57.9204L179.774 58.8856L180.742 58.7011L180.555 57.7188ZM176.473 53.9297L176.609 52.9391L176.604 52.9384L176.473 53.9297ZM172.43 55.8047L171.442 55.6496L171.44 55.6638L171.438 55.6781L172.43 55.8047ZM172.879 57.5234L172.062 58.1009L172.107 58.1644L172.162 58.2202L172.879 57.5234ZM175.867 59.125L175.5 60.0551L175.525 60.0651L175.551 60.0737L175.867 59.125ZM179.305 60.4336L178.894 61.3453L178.901 61.3487L178.909 61.3521L179.305 60.4336ZM181.512 61.5664L180.962 62.4016L180.972 62.4082L181.512 61.5664ZM184.266 64.6719L183.368 65.1119L183.375 65.1273L183.383 65.1425L184.266 64.6719ZM184.988 69.0078L184.001 68.8475L183.999 68.863L183.997 68.8785L184.988 69.0078ZM181.355 74.8086L181.895 75.6505L181.912 75.6399L181.928 75.6288L181.355 74.8086ZM172.879 76L173.018 75.0097L172.991 75.0059L172.964 75.0036L172.879 76ZM163.426 67.4453L163.334 66.4495L162.324 66.5426L162.431 67.5508L163.426 67.4453ZM169.148 66.918L170.143 66.813L170.039 65.8316L169.057 65.9222L169.148 66.918ZM173.953 71.3906L174.105 70.4022L174.095 70.4007L174.085 70.3994L173.953 71.3906ZM177.273 71.0391L176.763 70.179L177.273 71.0391ZM178.602 69.2031L179.59 69.3539L179.592 69.3425L179.593 69.3311L178.602 69.2031ZM178.523 68.1484L177.563 68.4284L177.571 68.4529L177.579 68.477L178.523 68.1484ZM177.898 67.2695L177.223 68.0067L177.239 68.0213L177.255 68.0352L177.898 67.2695ZM176.59 66.4492L176.151 67.3478L176.16 67.3519L176.168 67.3559L176.59 66.4492ZM174.441 65.5508L174.791 64.6139L174.781 64.6102L174.771 64.6067L174.441 65.5508ZM167.625 61.7227L166.875 62.3845L166.881 62.3909L167.625 61.7227ZM166.238 56.0781L167.227 56.2281L167.228 56.2192L167.23 56.2103L166.238 56.0781ZM169.598 50.5117L170.176 51.3273L170.183 51.3228L169.598 50.5117ZM176.922 49.0859L176.779 50.0756L176.785 50.0765L176.922 49.0859ZM185.797 55.7013L180.367 56.7364L180.742 58.7011L186.172 57.6659L185.797 55.7013ZM181.534 57.5171C181.274 56.2515 180.736 55.18 179.873 54.3784C179.01 53.5777 177.898 53.1168 176.609 52.9391L176.336 54.9203C177.313 55.0551 178.014 55.382 178.512 55.8442C179.009 56.3057 179.38 56.9724 179.575 57.9204L181.534 57.5171ZM176.604 52.9384C175.304 52.7655 174.131 52.8177 173.205 53.2471C172.203 53.7118 171.613 54.561 171.442 55.6496L173.418 55.9598C173.494 55.4729 173.701 55.2218 174.047 55.0615C174.468 54.8659 175.194 54.7684 176.341 54.921L176.604 52.9384ZM171.438 55.6781C171.326 56.5543 171.55 57.376 172.062 58.1009L173.695 56.946C173.453 56.6031 173.377 56.2791 173.422 55.9313L171.438 55.6781ZM172.162 58.2202C172.49 58.558 172.956 58.8631 173.486 59.147C174.03 59.4385 174.704 59.7409 175.5 60.0551L176.235 58.1949C175.481 57.8971 174.883 57.6266 174.43 57.3842C173.964 57.1343 173.711 56.9446 173.596 56.8267L172.162 58.2202ZM175.551 60.0737C176.898 60.5228 178.01 60.947 178.894 61.3453L179.716 59.5219C178.75 59.0869 177.571 58.6387 176.183 58.1763L175.551 60.0737ZM178.909 61.3521C179.821 61.7445 180.497 62.0955 180.962 62.4016L182.062 60.7312C181.459 60.3342 180.664 59.93 179.7 59.5151L178.909 61.3521ZM180.972 62.4082C182.013 63.0758 182.808 63.9707 183.368 65.1119L185.164 64.2319C184.447 62.7689 183.406 61.5935 182.052 60.7246L180.972 62.4082ZM183.383 65.1425C184.01 66.3173 184.213 67.5411 184.001 68.8475L185.975 69.1681C186.258 67.4277 185.98 65.7608 185.148 64.2013L183.383 65.1425ZM183.997 68.8785C183.723 70.9756 182.679 72.6664 180.783 73.9884L181.928 75.6288C184.251 74.0081 185.628 71.8317 185.98 69.1372L183.997 68.8785ZM180.816 73.9667C179.067 75.0877 176.518 75.5008 173.018 75.0097L172.74 76.9903C176.479 77.5149 179.581 77.1336 181.895 75.6505L180.816 73.9667ZM172.964 75.0036C170.374 74.7826 168.4 74.0006 166.958 72.7301L165.636 74.2308C167.475 75.851 169.889 76.7486 172.794 76.9964L172.964 75.0036ZM166.958 72.7301C165.539 71.4804 164.672 69.7179 164.42 67.3398L162.431 67.5508C162.726 70.329 163.773 72.5899 165.636 74.2308L166.958 72.7301ZM163.518 68.4411L169.24 67.9137L169.057 65.9222L163.334 66.4495L163.518 68.4411ZM168.154 67.0229C168.311 68.5103 168.863 69.7714 169.873 70.7114C170.871 71.6401 172.221 72.1686 173.821 72.3819L174.085 70.3994C172.755 70.222 171.84 69.8098 171.236 69.2475C170.644 68.6967 170.259 67.9168 170.143 66.813L168.154 67.0229ZM173.802 72.3791C175.341 72.6148 176.724 72.5276 177.784 71.8991L176.763 70.179C176.286 70.4619 175.456 70.6092 174.105 70.4022L173.802 72.3791ZM177.784 71.8991C178.766 71.3162 179.421 70.4646 179.59 69.3539L177.613 69.0523C177.548 69.4781 177.317 69.8505 176.763 70.179L177.784 71.8991ZM179.593 69.3311C179.66 68.8159 179.635 68.3013 179.468 67.8199L177.579 68.477C177.62 68.5945 177.647 68.7831 177.61 69.0752L179.593 69.3311ZM179.483 67.8684C179.322 67.3161 178.973 66.8659 178.542 66.5038L177.255 68.0352C177.475 68.22 177.542 68.3557 177.563 68.4284L179.483 67.8684ZM178.574 66.5324C178.16 66.153 177.626 65.8282 177.012 65.5425L176.168 67.3559C176.674 67.591 177.012 67.8132 177.223 68.0067L178.574 66.5324ZM177.029 65.5507C176.429 65.2579 175.68 64.9458 174.791 64.6139L174.092 66.4877C174.947 66.8068 175.631 67.0937 176.151 67.3478L177.029 65.5507ZM174.771 64.6067C171.536 63.477 169.46 62.2692 168.369 61.0545L166.881 62.3909C168.316 63.9886 170.784 65.3329 174.112 66.4949L174.771 64.6067ZM168.375 61.0608C167.337 59.8851 166.909 58.3225 167.227 56.2281L165.25 55.9282C164.864 58.4692 165.361 60.6696 166.875 62.3845L168.375 61.0608ZM167.23 56.2103C167.505 54.1415 168.476 52.5337 170.176 51.3273L169.019 49.6961C166.865 51.2241 165.596 53.3272 165.247 55.946L167.23 56.2103ZM170.183 51.3228C171.833 50.1325 173.994 49.6726 176.779 50.0756L177.065 48.0963C173.912 47.6399 171.19 48.1306 169.013 49.7006L170.183 51.3228ZM176.785 50.0765C179.242 50.4169 181.095 51.1764 182.422 52.2888C183.737 53.3909 184.606 54.8991 185.004 56.8803L186.965 56.4869C186.49 54.1192 185.413 52.1866 183.707 50.7561C182.013 49.3359 179.771 48.4711 177.059 48.0954L176.785 50.0765ZM207.918 48.3242L208.918 48.2944L208.888 47.2897L207.883 47.3248L207.918 48.3242ZM208.074 53.5586L208.11 54.558L209.103 54.5225L209.074 53.5288L208.074 53.5586ZM201.512 53.793L201.476 52.7936L200.479 52.8292L200.512 53.8268L201.512 53.793ZM202.234 75.1602L202.272 76.1595L203.267 76.1223L203.234 75.1264L202.234 75.1602ZM195.945 75.3945L194.946 75.4293L194.981 76.4312L195.983 76.3938L195.945 75.3945ZM195.203 54.0469L196.203 54.0121L196.168 53.0181L195.174 53.0473L195.203 54.0469ZM188.562 54.2422L187.563 54.2832L187.604 55.2708L188.592 55.2418L188.562 54.2422ZM188.348 49.0078L188.313 48.0084L187.307 48.0435L187.348 49.0488L188.348 49.0078ZM206.918 48.3541L207.075 53.5884L209.074 53.5288L208.918 48.2944L206.918 48.3541ZM208.039 52.5592L201.476 52.7936L201.547 54.7923L208.11 54.558L208.039 52.5592ZM200.512 53.8268L201.235 75.194L203.234 75.1264L202.511 53.7592L200.512 53.8268ZM202.197 74.1608L195.908 74.3952L195.983 76.3938L202.272 76.1595L202.197 74.1608ZM196.945 75.3598L196.203 54.0121L194.204 54.0816L194.946 75.4293L196.945 75.3598ZM195.174 53.0473L188.533 53.2426L188.592 55.2418L195.233 55.0464L195.174 53.0473ZM189.562 54.2012L189.347 48.9668L187.348 49.0488L187.563 54.2832L189.562 54.2012ZM188.383 50.0072L207.953 49.3236L207.883 47.3248L188.313 48.0084L188.383 50.0072Z" fill="white" mask="url(#path-3-outside-2_79_39)"/>
<g clip-path="url(#clip0_79_39)">
<path d="M186.125 28.125V28.1389L186.126 28.1529C186.143 28.4528 186.143 28.7534 186.126 29.0533L186.125 29.0663L186.125 29.0792C186.12 30.3873 185.69 31.6583 184.901 32.7015C184.112 33.7446 183.005 34.5035 181.748 34.8643C180.491 35.225 179.15 35.1681 177.928 34.7021C176.706 34.2361 175.668 33.3861 174.97 32.2798C174.272 31.1735 173.952 29.8707 174.057 28.5669C174.163 27.2631 174.689 26.0287 175.556 25.0492C176.423 24.0697 177.584 23.398 178.865 23.1348C180.147 22.8716 181.479 23.0312 182.662 23.5896L183.375 23.9265V23.1375V9.84374V9.22091L182.767 9.35556L169.642 12.2618L169.25 12.3486V12.75V31.875V31.8899L169.251 31.9048C169.269 32.2097 169.269 32.5153 169.251 32.8202L169.25 32.8333L169.25 32.8465C169.241 34.1538 168.808 35.423 168.017 36.4635C167.226 37.5041 166.118 38.26 164.861 38.6179C163.603 38.9757 162.264 38.9162 161.043 38.4483C159.822 37.9804 158.786 37.1292 158.09 36.0226C157.394 34.9159 157.076 33.6135 157.183 32.3105C157.29 31.0076 157.816 29.7745 158.684 28.7961C159.551 27.8178 160.712 27.147 161.992 26.8844C163.273 26.6218 164.604 26.7815 165.787 27.3396L166.5 27.6765V26.8875L166.5 11.25L166.5 11.2477C166.499 10.9346 166.604 10.6303 166.799 10.3853C166.994 10.1404 167.267 9.96939 167.572 9.90039C167.572 9.90034 167.572 9.90029 167.573 9.90024L184.443 6.15122C184.444 6.15112 184.444 6.15102 184.444 6.15093C184.645 6.10786 184.852 6.11015 185.052 6.15763C185.252 6.20522 185.438 6.297 185.598 6.42622L185.598 6.42624L185.603 6.42979C185.765 6.55784 185.896 6.72075 185.986 6.90642C186.076 7.09175 186.124 7.29501 186.125 7.50115V28.125Z" fill="#FFCA9C" stroke="white"/>
</g>
<defs>
<linearGradient id="paint0_linear_79_39" x1="46.9325" y1="32.7097" x2="63.113" y2="77.7428" gradientUnits="userSpaceOnUse">
<stop stop-color="#FFB9B9"/>
<stop offset="1" stop-color="#FFCE94"/>
</linearGradient>
<linearGradient id="paint1_linear_79_39" x1="100.801" y1="51.6786" x2="116.737" y2="104.598" gradientUnits="userSpaceOnUse">
<stop stop-color="#8757EC"/>
<stop offset="1" stop-color="#22A2FF"/>
</linearGradient>
<clipPath id="clip0_79_39">
<rect width="45" height="45" fill="white" transform="translate(151)"/>
</clipPath>
</defs>
</svg>
