<?xml version="1.0" encoding="UTF-8"?>
<svg width="260" height="111" fill="none" version="1.1" viewBox="0 0 260 111" xmlns="http://www.w3.org/2000/svg">
 <g fill="#000">
  <path d="m17.156 29.406-2.8124 19.906 16.062-18.031 9.4688 1.3438-12.281 13.625 8.875 29-10.938-1.5312-5.8124-19.469-7.1876 7.75-1.3437 9.7188-9.7188-1.4063 5.9688-42.25 9.7187 1.3437zm36.031 0 2.9375 42.563-9.9375 0.7187-3-42.562 10-0.7188zm47.874 4.0938-7.4058 42.062-8.375-1.5313-11.406-31.25c-0.2083 0.7292-0.2708 1.198-0.1875 1.4063-0.0417 0.3542-0.0833 0.6979-0.125 1.0313-0.0417 0.3124-0.1042 0.5937-0.1875 0.8437l-4.4375 25.156-7.5937-1.4063 7.4062-42 10.562 1.875 9.9375 27.312c0.0833-0.6042 0.1458-1.1354 0.1875-1.5938 0.0417-0.4791 0.1042-0.8854 0.1875-1.2187l3.8438-22.031 7.5932 1.3438zm41.376 0-7.407 42.062-8.375-1.5313-11.406-31.25c-0.208 0.7292-0.271 1.198-0.188 1.4063-0.041 0.3542-0.083 0.6979-0.124 1.0313-0.042 0.3124-0.105 0.5937-0.188 0.8437l-4.438 25.156-7.593-1.4063 7.406-42 10.563 1.875 9.937 27.312c0.083-0.6042 0.146-1.1354 0.187-1.5938 0.042-0.4791 0.105-0.8854 0.188-1.2187l3.844-22.031 7.594 1.3438zm13.687-4.0938 2.937 42.563-9.937 0.7187-3-42.562 10-0.7188zm40.094 7.1876-20.375 0.75 0.281 8.7187 16.063-0.5313 0.25 8.0626-16 0.5312 0.312 9.3438 20.281-0.7813 0.375 8.4687-30.5 1-1.562-42.625 30.531-1 0.344 8.0626z"/>
  <path d="m62.125 85.227-2.0625 11.719-7.5234-1.2891 5.5547-31.594 12.445 2.2031c2.7812 0.4844 4.8281 1.1563 6.1406 2.0156 0.7031 0.4532 1.3281 1 1.875 1.6407 0.5625 0.6406 1.0547 1.3906 1.4765 2.25 0.9532 1.6719 1.211 3.6406 0.7735 5.9062-0.2656 1.5625-0.8281 3.0313-1.6875 4.4063-0.8594 1.3594-1.9297 2.375-3.211 3.0468-1.25 0.6719-2.4531 1.0391-3.6093 1.1016-1.1407 0.0625-2.8047-0.1016-4.9922-0.4922l-5.1797-0.914zm0.7734-5.7657 4.7578 0.8672c0.8907 0.1719 1.6797 0.2031 2.3672 0.0938 0.6875-0.125 1.25-0.3438 1.6875-0.6563 0.4532-0.3281 0.8125-0.7265 1.0782-1.1953 0.2812-0.4844 0.4687-1 0.5625-1.5469 0.2656-1.3437 0.0625-2.4375-0.6094-3.2812-0.6719-0.8594-1.875-1.4297-3.6094-1.711l-4.7578-0.8671-1.4766 8.2968zm29.274 11.766 12.562 1.7812-0.843 6.2344-20.133-2.836 4.4766-31.664 7.4765 1.0547-3.539 25.43zm29.812-27.07 13.289 30.82-8.015 0.8672-2.602-6.3985-10.312 1.125-1.336 6.75-6.539 0.6797 6.82-32.93 8.695-0.9141zm-6.492 20.367 6.774-0.7265-4.571-10.805-2.203 11.531zm48.539-20.18-10.031 18.586v13.523l-7.477-0.0469v-13.476l-10.031-18.539h8.625l6.164 12.211 6.047-12.211 6.703-0.0468zm10.922 26.883 12.563 1.7812-0.844 6.2344-20.133-2.836 4.477-31.664 7.476 1.0547-3.539 25.43zm23.953-25.922 2.203 31.922-7.453 0.539-2.25-31.922 7.5-0.5391zm31.875 9.5156-6.515 1.2422c-0.547-2.6563-2.18-4.1719-4.899-4.5469-2.937-0.3906-4.555 0.3594-4.851 2.25-0.094 0.7344 0.086 1.4219 0.539 2.0625 0.531 0.5469 1.726 1.1875 3.586 1.9219 1.64 0.5469 3.015 1.0703 4.125 1.5703 1.125 0.4844 2.007 0.9375 2.648 1.3594 1.438 0.9219 2.539 2.1641 3.305 3.7265 0.875 1.6407 1.164 3.375 0.867 5.2032-0.375 2.875-1.828 5.1953-4.359 6.9609-2.438 1.5625-5.829 2.0391-10.172 1.4297-3.297-0.2812-5.93-1.2891-7.899-3.0234-1.968-1.7344-3.117-4.1485-3.445-7.2422l6.867-0.6328c0.328 3.1093 2.25 4.8984 5.766 5.3672 1.734 0.2656 3.062 0.125 3.984-0.4219s1.453-1.2813 1.594-2.2031c0.062-0.4844 0.031-0.9063-0.094-1.2657-0.109-0.375-0.359-0.7265-0.75-1.0547-0.375-0.3437-0.898-0.6718-1.57-0.9843-0.672-0.3282-1.531-0.6875-2.578-1.0782-3.938-1.375-6.664-2.9062-8.18-4.5937-1.531-1.7344-2.086-3.9922-1.664-6.7734 0.375-2.8126 1.719-5.0391 4.031-6.6797 2.297-1.6563 5.227-2.2266 8.789-1.711 6.203 0.8594 9.828 3.8985 10.875 9.1172zm26.321-10.031 0.187 6.2812-7.875 0.2813 0.867 25.641-7.547 0.2812-0.89-25.617-7.969 0.2344-0.258-6.2812 23.485-0.8203z"/>
  <g clip-path="url(#clip0_167_299)">
   <path d="m238.5 37.5v-27.5c-2e-3 -0.3755-0.088-0.7458-0.253-1.0834-0.164-0.33758-0.402-0.63378-0.697-0.8666-0.29-0.23495-0.63-0.40182-0.993-0.48834-0.364-0.08653-0.742-0.09051-1.107-0.01166l-22.5 5c-0.555 0.1253-1.052 0.4364-1.406 0.8819-0.355 0.4455-0.547 0.9987-0.544 1.5681v20.85c-1.707-0.8057-3.629-1.0363-5.477-0.6572-1.849 0.3791-3.525 1.3475-4.777 2.7599-1.252 1.4123-2.012 3.1925-2.167 5.0735-0.154 1.881 0.306 3.7613 1.31 5.3589 1.005 1.5976 2.501 2.8263 4.263 3.5018 1.762 0.6756 3.696 0.7614 5.511 0.2448 1.816-0.5166 3.414-1.6078 4.557-3.1101 1.142-1.5022 1.767-3.3343 1.78-5.2216 0.026-0.4329 0.026-0.867 0-1.3v-25.5l17.5-3.875v17.725c-1.708-0.8062-3.631-1.0366-5.481-0.6566-1.849 0.3799-3.526 1.3497-4.777 2.7638-1.252 1.414-2.011 3.1959-2.163 5.0781-0.153 1.8822 0.309 3.7631 1.317 5.3602s2.506 2.8241 4.271 3.4969c1.764 0.6728 3.699 0.7549 5.514 0.2341 1.815-0.5207 3.413-1.6164 4.552-3.1223s1.759-3.3408 1.767-5.2292c0.024-0.4247 0.024-0.8503 0-1.275z" fill="#000"/>
  </g>
 </g>
 <defs>
  <clipPath id="clip0_167_299">
   <rect transform="translate(191)" width="60" height="60" fill="#fff"/>
  </clipPath>
 </defs>
</svg>
