<svg width="260" height="111" viewBox="0 0 260 111" fill="none" xmlns="http://www.w3.org/2000/svg">
<path d="M17.1562 29.4062L14.3438 49.3125L30.4062 31.2812L39.875 32.625L27.5938 46.25L36.4688 75.25L25.5312 73.7188L19.7188 54.25L12.5312 62L11.1875 71.7188L1.46875 70.3125L7.4375 28.0625L17.1562 29.4062ZM53.1875 29.4062L56.125 71.9688L46.1875 72.6875L43.1875 30.125L53.1875 29.4062ZM101.062 33.5L93.6562 75.5625L85.2812 74.0312L73.875 42.7812C73.6667 43.5104 73.6042 43.9792 73.6875 44.1875C73.6458 44.5417 73.6042 44.8854 73.5625 45.2188C73.5208 45.5312 73.4583 45.8125 73.375 46.0625L68.9375 71.2188L61.3438 69.8125L68.75 27.8125L79.3125 29.6875L89.25 57C89.3333 56.3958 89.3958 55.8646 89.4375 55.4062C89.4792 54.9271 89.5417 54.5208 89.625 54.1875L93.4688 32.1562L101.062 33.5ZM142.438 33.5L135.031 75.5625L126.656 74.0312L115.25 42.7812C115.042 43.5104 114.979 43.9792 115.062 44.1875C115.021 44.5417 114.979 44.8854 114.938 45.2188C114.896 45.5312 114.833 45.8125 114.75 46.0625L110.312 71.2188L102.719 69.8125L110.125 27.8125L120.688 29.6875L130.625 57C130.708 56.3958 130.771 55.8646 130.812 55.4062C130.854 54.9271 130.917 54.5208 131 54.1875L134.844 32.1562L142.438 33.5ZM156.125 29.4062L159.062 71.9688L149.125 72.6875L146.125 30.125L156.125 29.4062ZM196.219 36.5938L175.844 37.3438L176.125 46.0625L192.188 45.5312L192.438 53.5938L176.438 54.125L176.75 63.4688L197.031 62.6875L197.406 71.1562L166.906 72.1562L165.344 29.5312L195.875 28.5312L196.219 36.5938Z" fill="url(#paint0_linear_167_299)"/>
<path d="M62.125 85.2266L60.0625 96.9453L52.5391 95.6562L58.0938 64.0625L70.5391 66.2656C73.3203 66.75 75.3672 67.4219 76.6797 68.2812C77.3828 68.7344 78.0078 69.2812 78.5547 69.9219C79.1172 70.5625 79.6094 71.3125 80.0312 72.1719C80.9844 73.8438 81.2422 75.8125 80.8047 78.0781C80.5391 79.6406 79.9766 81.1094 79.1172 82.4844C78.2578 83.8438 77.1875 84.8594 75.9062 85.5312C74.6562 86.2031 73.4531 86.5703 72.2969 86.6328C71.1562 86.6953 69.4922 86.5312 67.3047 86.1406L62.125 85.2266ZM62.8984 79.4609L67.6562 80.3281C68.5469 80.5 69.3359 80.5312 70.0234 80.4219C70.7109 80.2969 71.2734 80.0781 71.7109 79.7656C72.1641 79.4375 72.5234 79.0391 72.7891 78.5703C73.0703 78.0859 73.2578 77.5703 73.3516 77.0234C73.6172 75.6797 73.4141 74.5859 72.7422 73.7422C72.0703 72.8828 70.8672 72.3125 69.1328 72.0312L64.375 71.1641L62.8984 79.4609ZM92.1719 91.2266L104.734 93.0078L103.891 99.2422L83.7578 96.4062L88.2344 64.7422L95.7109 65.7969L92.1719 91.2266ZM121.984 64.1562L135.273 94.9766L127.258 95.8438L124.656 89.4453L114.344 90.5703L113.008 97.3203L106.469 98L113.289 65.0703L121.984 64.1562ZM115.492 84.5234L122.266 83.7969L117.695 72.9922L115.492 84.5234ZM164.031 64.3438L154 82.9297V96.4531L146.523 96.4062V82.9297L136.492 64.3906H145.117L151.281 76.6016L157.328 64.3906L164.031 64.3438ZM174.953 91.2266L187.516 93.0078L186.672 99.2422L166.539 96.4062L171.016 64.7422L178.492 65.7969L174.953 91.2266ZM198.906 65.3047L201.109 97.2266L193.656 97.7656L191.406 65.8438L198.906 65.3047ZM230.781 74.8203L224.266 76.0625C223.719 73.4062 222.086 71.8906 219.367 71.5156C216.43 71.125 214.812 71.875 214.516 73.7656C214.422 74.5 214.602 75.1875 215.055 75.8281C215.586 76.375 216.781 77.0156 218.641 77.75C220.281 78.2969 221.656 78.8203 222.766 79.3203C223.891 79.8047 224.773 80.2578 225.414 80.6797C226.852 81.6016 227.953 82.8438 228.719 84.4062C229.594 86.0469 229.883 87.7812 229.586 89.6094C229.211 92.4844 227.758 94.8047 225.227 96.5703C222.789 98.1328 219.398 98.6094 215.055 98C211.758 97.7188 209.125 96.7109 207.156 94.9766C205.188 93.2422 204.039 90.8281 203.711 87.7344L210.578 87.1016C210.906 90.2109 212.828 92 216.344 92.4688C218.078 92.7344 219.406 92.5938 220.328 92.0469C221.25 91.5 221.781 90.7656 221.922 89.8438C221.984 89.3594 221.953 88.9375 221.828 88.5781C221.719 88.2031 221.469 87.8516 221.078 87.5234C220.703 87.1797 220.18 86.8516 219.508 86.5391C218.836 86.2109 217.977 85.8516 216.93 85.4609C212.992 84.0859 210.266 82.5547 208.75 80.8672C207.219 79.1328 206.664 76.875 207.086 74.0938C207.461 71.2812 208.805 69.0547 211.117 67.4141C213.414 65.7578 216.344 65.1875 219.906 65.7031C226.109 66.5625 229.734 69.6016 230.781 74.8203ZM257.102 64.7891L257.289 71.0703L249.414 71.3516L250.281 96.9922L242.734 97.2734L241.844 71.6562L233.875 71.8906L233.617 65.6094L257.102 64.7891Z" fill="url(#paint1_linear_167_299)"/>
<g clip-path="url(#clip0_167_299)">
<path d="M238.5 37.5V10C238.498 9.6245 238.412 9.2542 238.247 8.91661C238.083 8.57903 237.845 8.28283 237.55 8.05001C237.26 7.81506 236.92 7.64819 236.557 7.56167C236.193 7.47514 235.815 7.47116 235.45 7.55001L212.95 12.55C212.395 12.6753 211.898 12.9864 211.544 13.4319C211.189 13.8774 210.997 14.4306 211 15V35.85C209.293 35.0443 207.371 34.8137 205.523 35.1928C203.674 35.5719 201.998 36.5403 200.746 37.9527C199.494 39.365 198.734 41.1452 198.579 43.0262C198.425 44.9072 198.885 46.7875 199.889 48.3851C200.894 49.9827 202.39 51.2114 204.152 51.8869C205.914 52.5625 207.848 52.6483 209.663 52.1317C211.479 51.6151 213.077 50.5239 214.22 49.0216C215.362 47.5194 215.987 45.6873 216 43.8C216.026 43.3671 216.026 42.933 216 42.5V17L233.5 13.125V30.85C231.792 30.0438 229.869 29.8134 228.019 30.1934C226.17 30.5733 224.493 31.5431 223.242 32.9572C221.99 34.3712 221.231 36.1531 221.079 38.0353C220.926 39.9175 221.388 41.7984 222.396 43.3955C223.404 44.9926 224.902 46.2196 226.667 46.8924C228.431 47.5652 230.366 47.6473 232.181 47.1265C233.996 46.6058 235.594 45.5101 236.733 44.0042C237.872 42.4983 238.492 40.6634 238.5 38.775C238.524 38.3503 238.524 37.9247 238.5 37.5Z" fill="#FFECE3"/>
</g>
<defs>
<linearGradient id="paint0_linear_167_299" x1="62.5767" y1="41.2796" x2="84.1506" y2="101.324" gradientUnits="userSpaceOnUse">
<stop stop-color="#FFD0D0"/>
<stop offset="1" stop-color="#FFF4E8"/>
</linearGradient>
<linearGradient id="paint1_linear_167_299" x1="128.709" y1="69.1071" x2="147.395" y2="132.013" gradientUnits="userSpaceOnUse">
<stop stop-color="#8757EC"/>
<stop offset="1" stop-color="#22A2FF"/>
</linearGradient>
<clipPath id="clip0_167_299">
<rect width="60" height="60" fill="white" transform="translate(191)"/>
</clipPath>
</defs>
</svg>